<?xml version="1.0" standalone="no"?>
<!DOCTYPE svg PUBLIC "-//W3C//DTD SVG 1.1//EN" "http://www.w3.org/Graphics/SVG/1.1/DTD/svg11.dtd" >
<svg xmlns="http://www.w3.org/2000/svg">
<metadata></metadata>
<defs>
<font id="arialnarrow" horiz-adv-x="934" >
<font-face units-per-em="2048" ascent="1638" descent="-410" />
<missing-glyph horiz-adv-x="467" />
<glyph horiz-adv-x="2048" />
<glyph horiz-adv-x="2048" />
<glyph unicode="&#xd;" horiz-adv-x="467" />
<glyph unicode=" "  horiz-adv-x="467" />
<glyph unicode="&#x09;" horiz-adv-x="467" />
<glyph unicode="&#xa0;" horiz-adv-x="467" />
<glyph unicode="!" horiz-adv-x="559" d="M103 0l48 277h232l-48 -277h-232zM213 373l73 748l59 345h248l-64 -371l-187 -722h-129z" />
<glyph unicode="&#x22;" horiz-adv-x="797" d="M249 945l4 273l43 248h251l-43 -248l-85 -273h-170zM619 945l4 273l44 248h250l-43 -248l-85 -273h-170z" />
<glyph unicode="#" d="M15 365v220h148l49 295h-197v221h234l64 390h184l-64 -390h180l64 390h190l-66 -390h114v-221h-150l-50 -295h200v-220h-236l-66 -390h-183l64 390h-182l-65 -390h-185l64 390h-111zM348 585h182l48 295h-182z" />
<glyph unicode="$" d="M74 426l207 13q16 -172 110 -224l75 442q-122 66 -186.5 173.5t-64.5 236.5q0 115 49.5 214.5t135.5 155t166 55.5l43 -1l15 86h117l-17 -103q102 -32 167 -121.5t77 -237.5l-202 -13q-14 111 -80 155l-68 -398q140 -68 206.5 -174.5t66.5 -249.5q0 -203 -121.5 -332.5 t-303.5 -129.5l-30 -176h-117l33 193q-114 34 -190.5 147t-87.5 289zM411 1098q0 -112 100 -180l62 363q-66 1 -114 -51.5t-48 -131.5zM504 195q89 8 141.5 67t52.5 149q0 57 -24.5 97t-100.5 88z" />
<glyph unicode="%" horiz-adv-x="1493" d="M152 1011q0 196 86.5 338t233.5 142q102 0 165 -78t63 -224q0 -138 -48 -253.5t-117.5 -165t-155.5 -49.5q-99 0 -163 76t-64 214zM208 -63l1002 1554h189l-1002 -1554h-189zM325 988q0 -52 18.5 -75t49.5 -23q57 0 94 96q44 117 44 242q0 45 -19 69t-49 24 q-29 0 -54.5 -25.5t-54.5 -126t-29 -181.5zM903 229q0 197 86.5 339t234.5 142q101 0 164 -78.5t63 -224.5q0 -137 -48 -252.5t-117.5 -165t-155.5 -49.5q-99 0 -163 76t-64 213zM1076 207q0 -52 18.5 -75t49.5 -23q57 0 93 96q45 117 45 242q0 45 -19 69t-49 24 q-28 0 -54 -25.5t-55 -126.5t-29 -181z" />
<glyph unicode="&#x26;" horiz-adv-x="1212" d="M139 391q0 95 32.5 182.5t90.5 155.5t186 152q-53 142 -53 246q0 163 96 263.5t240 100.5q122 0 201 -80t79 -199q0 -103 -69 -211.5t-210 -196.5q48 -98 120 -228q39 -68 63 -101q41 49 100 163l170 -124q-54 -132 -132 -224q45 -59 119 -136l-148 -188q-72 49 -144 142 q-63 -61 -152.5 -97t-188.5 -36q-178 0 -289 116t-111 300zM371 418q0 -96 50 -153t127 -57q99 0 201 83q-126 187 -215 388q-163 -99 -163 -261zM612 1154q0 -63 35 -154q164 102 164 210q0 43 -23.5 68.5t-61.5 25.5q-47 0 -80.5 -40.5t-33.5 -109.5z" />
<glyph unicode="'" horiz-adv-x="399" d="M254 945l4 273l43 248h251l-43 -248l-85 -273h-170z" />
<glyph unicode="(" horiz-adv-x="559" d="M110 314q0 212 57.5 423.5t169.5 421.5q65 124 215 332h178q-219 -315 -308 -603q-101 -328 -101 -698q0 -289 81 -621h-160q-132 376 -132 745z" />
<glyph unicode=")" horiz-adv-x="559" d="M-132 -431q220 317 309 605q101 328 101 703q0 274 -81 614h160q132 -384 132 -744q0 -213 -58 -424.5t-169 -421.5q-66 -123 -215 -332h-179z" />
<glyph unicode="*" horiz-adv-x="653" d="M161 1151l48 178l192 -115l-22 264h149l-23 -264l204 109l45 -177l-208 -54l144 -198l-122 -111l-112 231l-114 -231l-128 111l155 198z" />
<glyph unicode="+" horiz-adv-x="981" d="M69 592v263h315v381h210v-381h316v-263h-316v-381h-210v381h-315z" />
<glyph unicode="," horiz-adv-x="467" d="M17 -318l23 133q58 16 91 57t49 128h-109l48 277h237l-39 -229q-34 -201 -109 -282t-191 -84z" />
<glyph unicode="-" horiz-adv-x="559" d="M65 390l48 277h456l-47 -277h-457z" />
<glyph unicode="." horiz-adv-x="467" d="M74 0l48 277h232l-48 -277h-232z" />
<glyph unicode="/" horiz-adv-x="467" d="M-73 -25l595 1516h165l-595 -1516h-165z" />
<glyph unicode="0" d="M108 477q0 284 90.5 543.5t214.5 368.5q94 83 212 83q145 0 239.5 -128.5t94.5 -376.5q0 -284 -89.5 -543t-213.5 -368q-93 -81 -213 -81q-143 0 -239 127t-96 375zM339 419q0 -118 31.5 -166t80.5 -48q62 0 113 69q67 93 116.5 355.5t49.5 405.5q0 110 -32 158.5 t-81 48.5q-59 0 -107 -68q-76 -107 -129 -393q-42 -224 -42 -362z" />
<glyph unicode="1" d="M199 842l44 256q305 162 471 377h143l-253 -1475h-237l175 1016q-72 -57 -168.5 -105t-174.5 -69z" />
<glyph unicode="2" d="M102 0q18 163 104 311q58 100 271 347q155 180 198 250q56 94 56 172t-36.5 122.5t-89.5 44.5q-123 0 -161 -238l-231 42q30 210 133 315.5t253 105.5q162 0 261 -107t99 -287q0 -140 -73 -273q-54 -98 -220 -287q-151 -170 -206 -256h417l-45 -262h-730z" />
<glyph unicode="3" d="M86 383l225 33q14 -117 51 -162t98 -45q77 0 131 64.5t54 169.5q0 95 -44 145.5t-114 50.5q-17 0 -37 -4l41 239l24 -2q92 0 142 56.5t50 160.5q0 73 -34 113t-86 40q-111 0 -155 -201l-215 52q44 174 127 263q108 116 260 116q150 0 243.5 -103.5t93.5 -278.5 q0 -118 -56.5 -209t-149.5 -132q71 -46 110 -121.5t39 -169.5q0 -173 -107 -315q-127 -168 -320 -168q-148 0 -248 103.5t-123 304.5z" />
<glyph unicode="4" d="M46 299l41 240l651 927h202l-157 -923h145l-42 -244h-145l-52 -299h-222l52 299h-473zM322 543h239l78 457z" />
<glyph unicode="5" d="M107 420l229 25l-1 -30q0 -103 38 -153.5t95 -50.5q84 0 153 97t69 270q0 104 -39 155t-100 51q-47 0 -90.5 -26t-83.5 -79l-194 18l183 749h605l-45 -262h-399l-55 -226q34 19 68.5 28.5t68.5 9.5q134 0 224.5 -111t90.5 -305q0 -168 -68.5 -314t-174.5 -218.5 t-221 -72.5q-150 0 -251 119t-102 326z" />
<glyph unicode="6" d="M136 532q0 414 149 677t371 263q131 0 212 -89t98 -275l-220 -22q-7 88 -34.5 122.5t-73.5 34.5q-71 0 -124.5 -81.5t-88.5 -244.5q76 61 161 61q137 0 228.5 -114t91.5 -318q0 -231 -118.5 -401.5t-300.5 -170.5q-99 0 -178.5 58.5t-126 177t-46.5 322.5zM363 431 q0 -117 37.5 -171.5t93.5 -54.5q69 0 118 79q66 105 66 280q0 115 -37 169.5t-90 54.5q-42 0 -85.5 -36.5t-73 -123.5t-29.5 -197z" />
<glyph unicode="7" d="M174 1181l45 265h793l-35 -204q-62 -61 -131 -166q-99 -151 -169 -307q-97 -218 -152 -398q-76 -251 -95 -371h-224q20 146 93 378t169 429.5t220 373.5h-514z" />
<glyph unicode="8" d="M111 380q0 151 68.5 266t181.5 161q-63 51 -95 117t-32 148q0 109 51.5 204.5t136 145.5t189.5 50q153 0 247 -97.5t94 -260.5q0 -111 -50.5 -193.5t-152.5 -135.5q74 -55 110.5 -133.5t36.5 -179.5q0 -182 -102 -323q-126 -175 -330 -175q-154 0 -253.5 111t-99.5 295z M345 375q0 -85 38 -130.5t96 -45.5q86 0 137.5 93.5t51.5 217.5q0 77 -39 123t-96 46q-73 0 -130.5 -82t-57.5 -222zM450 1053q0 -71 35.5 -112.5t88.5 -41.5q61 0 110 57t49 138q0 73 -35.5 116t-89.5 43q-63 0 -110.5 -56.5t-47.5 -143.5z" />
<glyph unicode="9" d="M107 338l220 22q7 -87 34.5 -121.5t74.5 -34.5q71 0 124.5 81.5t88.5 243.5q-77 -60 -161 -60q-137 0 -228.5 113.5t-91.5 317.5q0 228 117 400t305 172q98 0 176 -57.5t124.5 -177t46.5 -322.5q0 -416 -149 -678t-371 -262q-132 0 -216 94t-94 269zM396 881 q0 -114 36.5 -168.5t89.5 -54.5q43 0 86.5 37t73 124t29.5 197q0 116 -37.5 170.5t-93.5 54.5q-69 0 -119 -79q-65 -105 -65 -281z" />
<glyph unicode=":" horiz-adv-x="559" d="M118 0l48 277h232l-48 -277h-232zM252 784l48 278h232l-47 -278h-233z" />
<glyph unicode=";" horiz-adv-x="559" d="M68 -318l23 133q58 16 91 57t49 128h-109l48 277h237l-39 -229q-34 -201 -109 -282t-191 -84zM257 784l47 278h233l-48 -278h-232z" />
<glyph unicode="&#x3c;" horiz-adv-x="981" d="M78 604v242l824 435v-285l-574 -268l574 -278v-283z" />
<glyph unicode="=" horiz-adv-x="981" d="M69 372v259h841v-259h-841zM69 816v258h841v-258h-841z" />
<glyph unicode="&#x3e;" horiz-adv-x="981" d="M77 166v283l576 276l-576 273v281l825 -435v-240z" />
<glyph unicode="?" horiz-adv-x="1026" d="M206 1070q43 202 164.5 311.5t288.5 109.5q168 0 273 -103.5t105 -264.5q0 -97 -47 -184.5t-229 -271.5q-119 -121 -147 -169t-41 -132h-212q18 136 70 233.5t208 262.5q126 134 152.5 180.5t26.5 93.5q0 65 -42.5 104.5t-120.5 39.5q-91 0 -149.5 -59.5t-84.5 -196.5z M290 0l47 277h233l-48 -277h-232z" />
<glyph unicode="@" horiz-adv-x="1638" d="M50 486q0 297 115 534t301.5 354.5t423.5 117.5q203 0 360.5 -94.5t248 -272t90.5 -404.5q0 -261 -137 -474q-159 -247 -406 -247q-66 0 -101 27t-48 87q-96 -114 -223 -114q-132 0 -224 112t-92 305q0 190 71 355t167 238.5t207 73.5q73 0 127 -34t89 -102l20 111h216 l-123 -717q-12 -69 -12 -90q0 -23 9.5 -35.5t22.5 -12.5q38 0 100 56q83 74 136 203t53 267q0 168 -72.5 304.5t-192 205t-289.5 68.5q-202 0 -352.5 -95.5t-243 -292.5t-92.5 -451q0 -217 87 -383t238 -249.5t369 -83.5q196 0 337 66.5t227 199.5h174q-87 -215 -271 -332.5 t-451 -117.5q-272 0 -460.5 107t-293.5 313.5t-105 496.5zM571 430q0 -129 43 -188t107 -59q56 0 103 42q61 54 105.5 184t44.5 262q0 113 -44 173t-107 60q-101 0 -164 -114q-88 -160 -88 -360z" />
<glyph unicode="A" horiz-adv-x="1212" d="M-19 0l680 1466h274l195 -1466h-234l-40 324h-477l-144 -324h-254zM491 568h334l-69 590z" />
<glyph unicode="B" horiz-adv-x="1212" d="M67 0l251 1466h412q165 0 235 -21q109 -32 168 -119t59 -215q0 -129 -57 -216t-171 -132q89 -30 142.5 -108t53.5 -182q0 -142 -64.5 -257t-168 -165.5t-293.5 -50.5h-567zM355 236h238q140 0 192 20t87 73.5t35 120.5q0 79 -46 124t-145 45h-296zM464 874h189 q124 0 178 20t85 69t31 112q0 51 -23 86.5t-58 47.5t-151 12h-191z" />
<glyph unicode="C" horiz-adv-x="1212" d="M159 606q0 271 92 477.5t234.5 307t308.5 100.5q187 0 311.5 -123t146.5 -352l-237 -28q-21 133 -78 188t-148 55q-93 0 -179 -67t-146.5 -224.5t-60.5 -346.5q0 -177 70 -271.5t170 -94.5q95 0 176 74.5t121 226.5l249 -45q-75 -255 -221.5 -382t-339.5 -127 q-216 0 -342.5 158t-126.5 474z" />
<glyph unicode="D" horiz-adv-x="1212" d="M73 0l251 1466h324q169 0 229 -14q101 -25 176.5 -99t119.5 -197.5t44 -296.5q0 -182 -45 -336.5t-126.5 -270t-168.5 -168t-182 -71.5q-62 -13 -198 -13h-424zM361 236h125q137 0 192 19q72 24 135 98.5t109 207t46 306.5q0 144 -37.5 226t-100.5 111q-45 20 -157 20 h-143z" />
<glyph unicode="E" horiz-adv-x="1120" d="M69 0l251 1466h891l-42 -245h-643l-57 -333h622l-42 -245h-622l-69 -398h691l-41 -245h-939z" />
<glyph unicode="F" horiz-adv-x="1026" d="M65 0l251 1466h842l-42 -245h-594l-61 -352h582l-42 -245h-582l-107 -624h-247z" />
<glyph unicode="G" horiz-adv-x="1307" d="M149 588q0 262 99.5 481.5t245 320.5t325.5 101q198 0 328 -114t173 -348l-230 -32q-61 250 -271 250q-114 0 -210 -69.5t-158.5 -225.5t-62.5 -364q0 -187 70 -274t202 -87q74 0 144 22q95 29 162 71l38 218h-307l42 245h537l-108 -629q-100 -80 -239 -129.5t-276 -49.5 q-238 0 -359 142q-145 170 -145 471z" />
<glyph unicode="H" horiz-adv-x="1212" d="M72 0l251 1466h248l-98 -566h466l97 566h247l-251 -1466h-247l112 655h-465l-113 -655h-247z" />
<glyph unicode="I" horiz-adv-x="467" d="M59 0l251 1466h247l-251 -1466h-247z" />
<glyph unicode="J" d="M49 335q0 35 4 79l229 30q-5 -43 -5 -71q0 -75 34.5 -110.5t99.5 -35.5q93 0 132 67q30 50 71 294l151 878h243l-152 -888q-63 -371 -166.5 -487t-294.5 -116q-166 0 -256 92.5t-90 267.5z" />
<glyph unicode="K" horiz-adv-x="1212" d="M66 0l251 1466h247l-106 -623l556 623h332l-541 -575l396 -891h-279l-297 698l-233 -249l-77 -449h-249z" />
<glyph unicode="L" horiz-adv-x="1026" d="M76 0l251 1466h248l-210 -1221h612l-42 -245h-859z" />
<glyph unicode="M" horiz-adv-x="1399" d="M68 0l251 1466h353l37 -1027l410 1027h356l-251 -1466h-226l237 1216l-475 -1216h-235l-43 1225l-191 -1225h-223z" />
<glyph unicode="N" horiz-adv-x="1212" d="M75 0l251 1466h231l325 -981l168 981h231l-251 -1466h-231l-325 985l-168 -985h-231z" />
<glyph unicode="O" horiz-adv-x="1307" d="M147 575q0 190 64 391q81 258 240 391.5t368 133.5q217 0 357.5 -165t140.5 -450q0 -258 -100.5 -476t-249.5 -322t-328 -104q-214 0 -341 150q-151 177 -151 451zM392 581q0 -162 79.5 -258.5t193.5 -96.5q92 0 182 72t156.5 236.5t66.5 334.5q0 178 -82 280 q-72 90 -189 90q-94 0 -186 -73t-156.5 -234.5t-64.5 -350.5z" />
<glyph unicode="P" horiz-adv-x="1120" d="M69 0l251 1466h489q136 0 209 -39t117.5 -122.5t44.5 -204.5q0 -146 -53.5 -268.5t-133 -181.5t-188.5 -80q-59 -11 -234 -11h-159l-96 -559h-247zM454 802h76q183 0 249.5 25t109.5 91.5t43 154.5q0 95 -62 131q-36 21 -166 21h-178z" />
<glyph unicode="Q" horiz-adv-x="1307" d="M148 579q0 185 63 386q82 258 241 392t368 134q217 0 357.5 -165t140.5 -450q0 -218 -75.5 -414t-194.5 -316q76 -92 166 -154l-117 -187q-115 68 -212 224q-57 -27 -118.5 -41t-127.5 -14q-213 0 -341 151q-150 177 -150 454zM393 597q0 -176 79 -273t197 -97q55 0 80 8 q9 3 9 13t-36 49q-47 50 -98 73l90 168q111 -69 192 -183q70 86 117.5 231.5t47.5 281.5q0 179 -77 275t-194 96q-94 0 -185 -71.5t-156.5 -232.5t-65.5 -338z" />
<glyph unicode="R" horiz-adv-x="1212" d="M74 0l251 1466h535q148 0 221 -39t118.5 -126t45.5 -220q0 -195 -95.5 -312.5t-274.5 -145.5q50 -55 98 -156q80 -170 176 -467h-266q-16 62 -108 337q-48 141 -88 199q-29 41 -59 56t-101 15h-102l-104 -607h-247zM463 827h131q186 0 251.5 23.5t109 86.5t43.5 139 q0 83 -55 121q-32 24 -140 24h-272z" />
<glyph unicode="S" horiz-adv-x="1120" d="M106 475l235 15q5 -118 27 -164t73 -72.5t139 -26.5q114 0 171.5 50t57.5 131q0 57 -33 98q-33 40 -171 113q-175 93 -232.5 144.5t-89 126.5t-31.5 171q0 196 115 313t314 117q201 0 321.5 -116t132.5 -327l-237 -13q-18 217 -218 217q-99 0 -145.5 -41.5t-46.5 -113.5 q0 -66 44 -107q43 -42 174 -112q173 -91 230 -141.5t87.5 -124t30.5 -166.5q0 -208 -131 -339.5t-346 -131.5q-162 0 -276.5 69t-156.5 184q-39 107 -38 229v18z" />
<glyph unicode="T" horiz-adv-x="1026" d="M202 1221l42 245h947l-42 -245h-347l-210 -1221h-247l210 1221h-353z" />
<glyph unicode="U" horiz-adv-x="1212" d="M153 424q0 67 35 270l132 772h247l-136 -796l-33 -192q-4 -28 -4 -50q0 -93 54.5 -147t148.5 -54q83 0 141 37t92 113.5t70 286.5l137 802h247l-137 -802q-42 -245 -89 -360q-68 -166 -184 -247.5t-289 -81.5q-201 0 -316.5 120.5t-115.5 328.5z" />
<glyph unicode="V" horiz-adv-x="1120" d="M191 1466h247l153 -1109l497 1109h245l-662 -1466h-265z" />
<glyph unicode="W" horiz-adv-x="1585" d="M197 1466h242l10 -1026l413 1026h269l27 -1015l396 1015h239l-581 -1466h-250l-27 1072l-438 -1072h-255z" />
<glyph unicode="X" horiz-adv-x="1120" d="M-50 0l531 742l-299 724h259l116 -275q63 -148 91 -230q100 149 169 244l189 261h310l-549 -772l296 -694h-279l-90 221q-72 177 -94 251q-31 -58 -165 -244l-165 -228h-320z" />
<glyph unicode="Y" horiz-adv-x="1120" d="M193 1466h263l149 -414q53 -148 71 -215q32 67 72 139l113 193l170 297h287l-551 -923l-93 -543h-248l99 571z" />
<glyph unicode="Z" horiz-adv-x="1026" d="M42 0l40 231l691 990h-560l42 245h867l-36 -230l-700 -996l129 3h39l178 2h284l-42 -245h-932z" />
<glyph unicode="[" horiz-adv-x="559" d="M16 -404l320 1870h401l-38 -223h-179l-246 -1433h180l-37 -214h-401z" />
<glyph unicode="\" horiz-adv-x="467" d="M131 1491h164l187 -1516h-165z" />
<glyph unicode="]" horiz-adv-x="559" d="M-94 -404l38 224h182l245 1432h-181l36 214h403l-320 -1870h-403z" />
<glyph unicode="^" horiz-adv-x="981" d="M95 692l308 799h183l301 -799h-234l-162 489l-161 -489h-235z" />
<glyph unicode="_" d="M-12 -154h959v-102h-959v102z" />
<glyph unicode="`" horiz-adv-x="559" d="M225 1499h227l105 -299h-160z" />
<glyph unicode="a" d="M76 284q0 161 82 248q81 87 272 105q168 17 225 41q15 61 15 97q0 48 -32.5 77.5t-88.5 29.5q-122 0 -149 -121l-230 24q41 147 142 224t256 77q158 0 243 -78.5t85 -208.5q0 -46 -6.5 -98t-48.5 -284q-35 -191 -35 -267q0 -69 19 -150h-228q-14 58 -17 120 q-52 -70 -119.5 -107t-134.5 -37q-106 0 -178 84t-72 224zM297 309q0 -53 30.5 -86t77.5 -33q49 0 94 27.5t72 77t46 162.5l7 38q-22 -7 -57 -13q-165 -24 -217.5 -64.5t-52.5 -108.5z" />
<glyph unicode="b" horiz-adv-x="1026" d="M60 0l251 1466h236l-84 -490q69 63 124 86.5t118 23.5q137 0 221 -111t84 -329q0 -199 -65.5 -358.5t-164.5 -235.5t-201 -76q-187 0 -275 199l-30 -175h-214zM377 433q0 -109 50.5 -175t116.5 -66q53 0 105 44.5t92 160t40 242.5q0 117 -48.5 180t-115.5 63 q-102 0 -171 -132t-69 -317z" />
<glyph unicode="c" d="M101 429q0 195 67.5 347.5t183 231t246.5 78.5q148 0 243 -94t107 -261l-224 -29q-16 173 -140 173q-57 0 -112 -47t-96.5 -168t-41.5 -264q0 -95 38.5 -145.5t92.5 -50.5q57 0 109.5 48.5t83.5 151.5l228 -45q-57 -190 -168.5 -284.5t-254.5 -94.5q-162 0 -262 118 t-100 335z" />
<glyph unicode="d" horiz-adv-x="1026" d="M100 421q0 263 121 464t310 201q175 0 263 -169l94 549h235l-251 -1466h-223l20 115q-66 -77 -128.5 -108t-136.5 -31q-134 0 -219 111t-85 334zM329 432q0 -116 47.5 -179t115.5 -63q56 0 109 43.5t92.5 153.5t39.5 227q0 120 -51 190.5t-117 70.5q-51 0 -104 -45.5 t-92.5 -159t-39.5 -238.5z" />
<glyph unicode="e" d="M97 468q0 245 128 431.5t358 186.5q155 0 251.5 -117.5t96.5 -339.5q0 -105 -16 -187h-591v-27q0 -107 50 -171t120 -64q116 0 183 148l211 -43q-62 -155 -165 -232t-231 -77q-170 0 -282.5 132.5t-112.5 359.5zM348 617h368l1 28q0 121 -44.5 179t-115.5 58 q-72 0 -130.5 -67t-78.5 -198z" />
<glyph unicode="f" horiz-adv-x="559" d="M90 0l146 852h-131l36 210h131l19 109q25 148 54.5 203.5t84.5 86t131 30.5q109 0 229 -48l-45 -205q-85 35 -138 35q-34 0 -55 -25q-16 -19 -32 -111l-13 -75h167l-36 -210h-166l-147 -852h-235z" />
<glyph unicode="g" horiz-adv-x="1026" d="M52 -100l2 44l249 -44q0 -64 31.5 -95t95.5 -31q63 0 102.5 24.5t61.5 73.5t45 198l7 50q-121 -124 -251 -124q-127 0 -210 108t-83 324q0 205 61 357.5t158.5 226.5t198.5 74q85 0 157.5 -54.5t114.5 -157.5l32 188h221l-151 -885q-45 -259 -79 -357 q-47 -134 -138 -192.5t-251 -58.5q-187 0 -270 69q-104 86 -104 262zM332 457q0 -121 51 -193q39 -55 105 -55q54 0 107.5 45t92.5 148.5t39 224.5q0 118 -50.5 186.5t-115.5 68.5q-50 0 -98.5 -42.5t-89.5 -157.5t-41 -225z" />
<glyph unicode="h" horiz-adv-x="1026" d="M70 0l251 1466h236l-90 -522q84 80 153 111t143 31q103 0 166 -72t63 -198q0 -63 -23 -195l-107 -621h-235l109 633q17 103 17 132q0 55 -28 86t-73 31q-59 0 -112 -49q-73 -67 -109 -165q-20 -53 -53 -247l-73 -421h-235z" />
<glyph unicode="i" horiz-adv-x="467" d="M68 0l182 1062h235l-182 -1062h-235zM275 1206l44 260h236l-45 -260h-235z" />
<glyph unicode="j" horiz-adv-x="467" d="M-183 -399l37 237q56 -17 95 -17q51 0 79 49t73 312l150 880h237l-155 -899q-66 -384 -112 -466q-71 -128 -231 -128q-93 0 -173 32zM276 1206l45 260h236l-45 -260h-236z" />
<glyph unicode="k" d="M64 0l251 1466h236l-131 -763l306 359h306l-350 -386l187 -676h-236l-120 491l-159 -172l-55 -319h-235z" />
<glyph unicode="l" horiz-adv-x="467" d="M66 0l251 1466h236l-252 -1466h-235z" />
<glyph unicode="m" horiz-adv-x="1493" d="M60 0l182 1062h222l-23 -129q130 153 272 153q190 0 220 -187q47 82 132 134.5t172 52.5q102 0 162 -65.5t60 -182.5q0 -55 -23 -189l-111 -649h-236l111 649q21 122 21 138q0 46 -23 70.5t-63 24.5q-85 0 -153 -106q-54 -83 -90 -293l-82 -483h-236l110 642 q19 111 19 143q0 45 -24.5 71t-62.5 26q-51 0 -105.5 -48.5t-86.5 -141.5q-19 -55 -45 -204l-84 -488h-235z" />
<glyph unicode="n" horiz-adv-x="1026" d="M70 0l182 1062h223l-23 -138q87 91 159.5 126.5t149.5 35.5q105 0 168 -73t63 -200q0 -55 -26 -211l-103 -602h-236l104 602q23 135 23 162q0 57 -27.5 87.5t-71.5 30.5q-48 0 -98 -38q-72 -54 -107 -128.5t-70 -279.5l-75 -436h-235z" />
<glyph unicode="o" horiz-adv-x="1026" d="M102 441q0 261 118 444q131 201 379 201q186 0 296.5 -126t110.5 -351q0 -264 -137.5 -448.5t-359.5 -184.5q-181 0 -294 125t-113 340zM338 448q0 -119 51.5 -185t127.5 -66q96 0 163 102q93 140 93 347q0 105 -49.5 165t-125.5 60q-64 0 -120 -44t-98 -153t-42 -226z " />
<glyph unicode="p" horiz-adv-x="1026" d="M-9 -405l251 1467h223l-19 -109q75 75 137 104t130 29q136 0 220 -114t84 -343q0 -292 -148 -490q-122 -163 -287 -163q-172 0 -261 170l-95 -551h-235zM384 453q0 -125 50 -193t116 -68q53 0 104 43.5t92.5 160.5t41.5 241q0 119 -47.5 182t-117.5 63q-55 0 -106.5 -43 t-92 -155t-40.5 -231z" />
<glyph unicode="q" horiz-adv-x="1026" d="M100 417q0 197 66 359t162.5 236t203.5 74q187 0 272 -191l29 167h216l-250 -1467h-236l85 495q-64 -64 -120 -89t-122 -25q-135 0 -214 102q-92 119 -92 339zM327 422q0 -109 48 -171t115 -62q56 0 108 42.5t92 153.5t40 236q0 121 -50.5 187.5t-114.5 66.5 q-50 0 -103.5 -46t-94 -162.5t-40.5 -244.5z" />
<glyph unicode="r" horiz-adv-x="653" d="M54 0l182 1062h220l-35 -206q122 230 266 230q50 0 109 -30l-90 -235q-32 14 -67 14q-55 0 -103 -37q-73 -57 -112 -149t-77 -316l-58 -333h-235z" />
<glyph unicode="s" d="M37 297l228 44q30 -90 76 -125.5t122 -35.5q73 0 118 35t45 82q0 32 -19 54q-20 21 -96 51q-211 85 -262 134q-81 79 -81 206q0 150 106 247t290 97q312 0 362 -277l-217 -46q-38 126 -182 126q-68 0 -103 -28t-35 -71q0 -36 27 -61q20 -19 138 -61q169 -60 227 -117 q85 -83 85 -202q0 -161 -109 -267t-289 -106q-354 0 -431 321z" />
<glyph unicode="t" horiz-adv-x="559" d="M126 849l36 213h115l29 170l269 198l-63 -368h144l-36 -213h-144l-77 -445q-20 -120 -20 -139q0 -35 18 -52t62 -17q14 0 77 7l-37 -213q-61 -14 -123 -14q-120 0 -179.5 56t-59.5 164q0 50 30 226l73 427h-114z" />
<glyph unicode="u" horiz-adv-x="1026" d="M118 252q0 54 28 218l101 592h236l-108 -629q-19 -113 -19 -141q0 -48 28.5 -80t69.5 -32q48 0 95 34q66 47 105 122.5t64 219.5l86 506h235l-181 -1062h-220l24 144q-145 -168 -313 -168q-106 0 -168.5 73.5t-62.5 202.5z" />
<glyph unicode="v" d="M126 1062h231l62 -463q24 -180 30 -250l52 118l67 147l216 448h254l-535 -1062h-202z" />
<glyph unicode="w" horiz-adv-x="1307" d="M121 1062h209l61 -712l271 712h214l30 -712l270 712h236l-434 -1062h-221l-43 676l-266 -676h-218z" />
<glyph unicode="x" d="M-37 0l403 544l-222 518h250l127 -303l221 303h286l-404 -551l220 -511h-250l-126 298l-217 -298h-288z" />
<glyph unicode="y" d="M11 -399l21 214q42 -15 82 -15q108 0 179 200l-152 1062h234l59 -529q22 -203 25 -286q46 164 126 344l209 471h249l-538 -1166q-76 -164 -117 -219.5t-92.5 -81.5t-116.5 -26q-74 0 -168 32z" />
<glyph unicode="z" horiz-adv-x="840" d="M28 0l34 194l477 644h-389l38 224h683l-29 -171l-481 -659h419l-40 -232h-712z" />
<glyph unicode="{" horiz-adv-x="653" d="M92 410l42 240q72 4 113 34t73 101.5t61 240.5q30 177 60 253.5t73.5 120t108 67.5t178.5 24h43l-43 -239q-92 0 -121.5 -13.5t-45.5 -42.5q-12 -21 -38 -150q-47 -231 -66 -283q-30 -83 -68.5 -134t-109.5 -99q96 -76 96 -226q0 -76 -26 -230q-24 -150 -24 -189 q0 -38 31 -60q25 -16 117 -16l-42 -240h-43q-118 0 -171.5 23.5t-84 73.5t-30.5 128q0 85 30 241q27 141 27 217q0 70 -35 117q-27 36 -105 41z" />
<glyph unicode="|" horiz-adv-x="471" d="M145 -431v1922h183v-1922h-183z" />
<glyph unicode="}" horiz-adv-x="653" d="M-144 -431l43 240q83 0 112.5 12t48.5 38t31 95q53 293 102.5 402t152.5 174q-53 48 -74 100t-21 134q0 37 6 86q20 161 37 257q7 41 7 71q0 40 -26 57t-123 17l42 239h44q118 0 170 -22.5t83.5 -76.5t31.5 -131q0 -66 -30 -235q-27 -155 -27 -208q0 -85 37 -130 q28 -33 104 -38l-42 -240q-72 -4 -113 -34t-72.5 -101t-60.5 -240q-30 -177 -60.5 -254t-73.5 -120t-107.5 -67.5t-178.5 -24.5h-43z" />
<glyph unicode="~" horiz-adv-x="981" d="M55 519v259q104 138 242 138q52 0 95.5 -12.5t143.5 -61.5q126 -62 166 -62q47 0 108 35.5t116 108.5v-270q-46 -58 -127 -103q-52 -29 -118 -29q-41 0 -80 11.5t-124 57.5q-126 67 -198 67q-115 0 -224 -139z" />
<glyph unicode="&#xa2;" d="M99 431q0 199 68.5 349t182.5 228t246 78l48 -2l127 378l100 -49l-121 -359q85 -41 137.5 -125t58.5 -198l-208 -26q-7 95 -56 148l-222 -661l13 -1q126 0 195 208l216 -41q-53 -187 -164.5 -285t-251.5 -98q-36 0 -79 8l-127 -378l-100 48l123 365q-81 46 -133.5 152.5 t-52.5 260.5zM320 404q0 -107 41 -161l219 651q-65 -5 -121.5 -56.5t-97.5 -171t-41 -262.5z" />
<glyph unicode="&#xa3;" d="M35 223q102 53 173.5 159t83.5 235h-188l38 224h132q-14 84 -14 164q0 217 118.5 351.5t291.5 134.5q151 0 248 -104.5t108 -291.5l-211 -25q-27 199 -154 199q-74 0 -129.5 -74t-55.5 -210q0 -54 12 -144h208l-39 -224h-159q-6 -116 -44 -204t-130 -190q61 31 121 31 q32 0 81 -11q70 -16 111 -16q90 0 187 53l70 -244q-73 -37 -120.5 -49t-99.5 -12q-80 0 -181 33q-122 41 -192 41q-114 0 -241 -86z" />
<glyph unicode="&#xa5;" d="M42 286l31 177h305l25 143h-306l30 177h226l-169 683h239l58 -259q24 -107 65 -368q104 249 202 432l104 195h268l-385 -683h233l-31 -177h-302l-24 -143h302l-30 -177h-303l-49 -286h-232l49 286h-306z" />
<glyph unicode="&#xa8;" horiz-adv-x="559" d="M142 1223l42 245h201l-42 -245h-201zM487 1223l42 245h202l-42 -245h-202z" />
<glyph unicode="&#xa9;" horiz-adv-x="1237" d="M-8 730q0 215 90.5 395.5t234.5 275.5t303 95q160 0 303.5 -95t234 -275.5t90.5 -395.5t-90.5 -395.5t-234.5 -275.5t-303 -95t-303 95t-234.5 275.5t-90.5 395.5zM116 730q0 -173 72.5 -318t188 -221t243.5 -76t243.5 76t188.5 221t73 318t-73 318t-188.5 221t-243.5 76 t-243.5 -76t-188 -221t-72.5 -318zM312 724q0 210 89.5 320t229.5 110q201 0 274 -243l-133 -38q-42 139 -146 139q-73 0 -121.5 -68t-48.5 -213q0 -147 47 -216.5t109 -69.5q121 0 161 171l132 -54q-32 -130 -105 -195t-171 -65q-135 0 -226 109.5t-91 312.5z" />
<glyph unicode="&#xab;" d="M89 552l338 425h197l-296 -444l109 -462h-165zM425 553l318 424h200l-289 -446l103 -460h-169z" />
<glyph unicode="&#xad;" horiz-adv-x="559" d="M65 390l48 277h456l-47 -277h-457z" />
<glyph unicode="&#xae;" horiz-adv-x="1237" d="M-8 730q0 215 90.5 395.5t234.5 275.5t303 95q160 0 303.5 -95t234 -275.5t90.5 -395.5t-90.5 -395.5t-234.5 -275.5t-303 -95t-303 95t-234.5 275.5t-90.5 395.5zM117 730q0 -173 72.5 -318.5t188.5 -222t243 -76.5q128 0 243.5 76.5t188.5 222t73 318.5t-73 318.5 t-188.5 221.5t-243.5 76t-243.5 -76t-188 -221.5t-72.5 -318.5zM336 320v813h136q203 0 240 -5q73 -12 119 -70.5t46 -152.5q0 -93 -49 -154t-131 -75q40 -19 66.5 -55.5t75.5 -136.5l78 -164h-167l-56 132q-56 133 -93 167.5t-94 34.5h-35v-334h-136zM472 782h54 q111 0 136 8q33 9 52 37t19 67t-19.5 65.5t-52.5 36.5q-26 8 -135 8h-54v-222z" />
<glyph unicode="&#xb4;" horiz-adv-x="559" d="M308 1196l171 300h252l-267 -300h-156z" />
<glyph unicode="&#xb8;" horiz-adv-x="559" d="M11 -421l39 116l50 -1q73 0 148 31q51 21 51 71q0 32 -23.5 51t-71.5 19q-27 0 -74 -9l28 99q59 18 107 18q85 0 134 -45.5t49 -119.5q0 -94 -94 -164t-264 -70q-51 0 -79 4z" />
<glyph unicode="&#xbb;" d="M38 71l290 447l-104 459h169l164 -481l-319 -425h-200zM357 71l296 445l-109 461h165l183 -480l-338 -426h-197z" />
<glyph unicode="&#x192;" d="M-16 -391l47 221q89 -23 137 -23q50 0 68.5 32.5t33.5 138.5l122 873h-166l31 211h165l13 89q23 147 38 190q27 76 84 113t160 37q111 0 220 -41l-44 -226q-77 28 -130 28q-44 0 -65.5 -24t-35.5 -110l-9 -56h170l-30 -211h-168l-141 -978q-23 -160 -72 -223 q-63 -81 -195 -81q-131 0 -233 40z" />
<glyph unicode="&#x2c6;" horiz-adv-x="559" d="M94 1197l244 301h220l99 -301h-162l-63 178l-144 -178h-194z" />
<glyph unicode="&#x2da;" horiz-adv-x="559" d="M253 1351q0 83 47.5 138t110.5 55t111 -55t48 -138t-48 -138t-111 -55t-110.5 55t-47.5 138zM342 1351q0 -36 21 -60t48 -24q28 0 49 24t21 60q0 37 -21 61t-49 24q-27 0 -48 -24.5t-21 -60.5z" />
<glyph unicode="&#x2dc;" horiz-adv-x="559" d="M156 1213q26 141 67 191t93 50q45 0 155 -49q64 -28 88 -28q18 0 31.5 15t24.5 63h105q-15 -122 -61.5 -181t-103.5 -59q-38 0 -117 39q-83 41 -105 41q-52 0 -73 -82h-104z" />
<glyph unicode="&#x401;" horiz-adv-x="1120" d="M69 0l251 1466h891l-42 -245h-643l-57 -333h622l-42 -245h-622l-69 -398h691l-41 -245h-939zM526 1595l42 245h201l-42 -245h-201zM871 1595l42 245h202l-42 -245h-202z" />
<glyph unicode="&#x402;" horiz-adv-x="1487" d="M164 1212l43 254h954l-43 -254h-356l-55 -321q144 94 309 94q178 0 288.5 -132.5t110.5 -334.5q0 -232 -133 -381t-326 -149q-83 0 -182 32l41 244q68 -18 127 -18q106 0 171 75.5t65 200.5q0 86 -52.5 140.5t-138.5 54.5q-164 0 -332 -117l-104 -600h-248l215 1212h-354 z" />
<glyph unicode="&#x403;" horiz-adv-x="1024" d="M71 0l252 1466h858l-41 -245h-613l-208 -1221h-248zM658 1577l171 300h252l-267 -300h-156z" />
<glyph unicode="&#x404;" horiz-adv-x="1208" d="M113 604q0 391 181.5 639t457.5 248q384 0 454 -479l-237 -29q-37 250 -228 250q-115 0 -205.5 -97t-140.5 -284h387l-43 -246h-381q0 -182 67 -284.5t177 -102.5q208 0 295 307l244 -47q-56 -227 -209 -364.5t-350 -137.5q-220 0 -344.5 165.5t-124.5 461.5z" />
<glyph unicode="&#x405;" horiz-adv-x="1120" d="M106 475l235 15q5 -118 27 -164t73 -72.5t139 -26.5q114 0 171.5 50t57.5 131q0 57 -33 98q-33 40 -171 113q-175 93 -232.5 144.5t-89 126.5t-31.5 171q0 196 115 313t314 117q201 0 321.5 -116t132.5 -327l-237 -13q-18 217 -218 217q-99 0 -145.5 -41.5t-46.5 -113.5 q0 -66 44 -107q43 -42 174 -112q173 -91 230 -141.5t87.5 -124t30.5 -166.5q0 -208 -131 -339.5t-346 -131.5q-162 0 -276.5 69t-156 184t-38.5 247z" />
<glyph unicode="&#x406;" horiz-adv-x="467" d="M59 0l251 1466h247l-251 -1466h-247z" />
<glyph unicode="&#x407;" horiz-adv-x="467" d="M59 0l251 1466h247l-251 -1466h-247zM182 1595l42 245h201l-42 -245h-201zM527 1595l42 245h202l-42 -245h-202z" />
<glyph unicode="&#x408;" d="M49 335q0 35 4 79l229 30q-5 -43 -5 -71q0 -75 34.5 -110.5t99.5 -35.5q93 0 132 67q30 50 71 294l151 878h243l-152 -888q-63 -371 -166.5 -487t-294.5 -116q-166 0 -256 92.5t-90 267.5z" />
<glyph unicode="&#x409;" horiz-adv-x="1837" d="M-86 14l45 254q55 -28 86 -28q45 0 77 39.5t60 199.5l172 987h828l-97 -555h211q249 0 353 -99.5t104 -319.5q0 -224 -127 -358t-342 -134h-604l213 1221h-334l-137 -777q-45 -253 -121.5 -361t-212.5 -108q-93 0 -174 39zM967 240h264q276 0 276 231q0 100 -55.5 147.5 t-191.5 47.5h-218z" />
<glyph unicode="&#x40a;" horiz-adv-x="1749" d="M31 0l252 1466h245l-96 -555h324l96 555h248l-96 -555h194q263 0 370 -98t107 -307q0 -238 -128.5 -372t-362.5 -134h-582l111 666h-322l-112 -666h-248zM887 240h248q121 0 174 22.5t87 80t34 128.5q0 92 -50.5 143.5t-220.5 51.5h-196z" />
<glyph unicode="&#x40b;" horiz-adv-x="1434" d="M164 1212l41 254h954l-43 -254h-350l-55 -305q154 64 305 64q164 0 254 -84t90 -236q0 -64 -25 -202l-80 -449h-243l73 416q15 86 15 145q0 168 -185 168q-119 0 -245 -74l-115 -655h-246l213 1212h-358z" />
<glyph unicode="&#x40c;" horiz-adv-x="1032" d="M33 0l256 1466h246l-109 -622q83 2 123.5 52t130 236t136.5 240.5t108.5 74t148.5 19.5h64l-54 -223h-39q-54 0 -85.5 -33.5t-94.5 -185.5q-95 -235 -227 -276q49 -19 87.5 -69.5t78.5 -217.5l108 -461h-254l-100 455q-24 110 -59 145.5t-109 36.5l-110 -637h-246z M543 1596l171 300h252l-267 -300h-156z" />
<glyph unicode="&#x40e;" horiz-adv-x="1137" d="M84 0l31 233q60 -14 96 -14q70 0 117 37.5t94 130.5l18 37l-266 1042h277l153 -747l418 747h268l-735 -1233q-95 -160 -160.5 -208t-156.5 -48q-87 0 -154 23zM530 1888h114q19 -82 51 -113.5t79 -31.5q98 0 162 145h108q-35 -140 -121 -226q-64 -64 -156 -64 q-95 0 -157.5 71t-79.5 219z" />
<glyph unicode="&#x40f;" horiz-adv-x="1208" d="M33 0l256 1466h246l-213 -1220h460l215 1220h246l-258 -1466h-375l-71 -406h-201l72 406h-377z" />
<glyph unicode="&#x410;" horiz-adv-x="1212" d="M-19 0l680 1466h274l195 -1466h-234l-40 324h-477l-144 -324h-254zM491 568h334l-69 590z" />
<glyph unicode="&#x411;" horiz-adv-x="1190" d="M35 0l258 1466h858l-47 -245h-608l-54 -310h213q283 0 370 -120.5t87 -298.5q0 -223 -128 -357.5t-341 -134.5h-608zM326 240h262q278 0 278 231q0 100 -55 147.5t-193 47.5h-217z" />
<glyph unicode="&#x412;" horiz-adv-x="1212" d="M67 0l251 1466h412q165 0 235 -21q109 -32 168 -119t59 -215q0 -129 -57 -216t-171 -132q89 -30 142.5 -108t53.5 -182q0 -142 -64.5 -257t-168 -165.5t-293.5 -50.5h-567zM355 236h238q140 0 192 20t87 73.5t35 120.5q0 79 -46 124t-145 45h-296zM464 874h189 q124 0 178 20t85 69t31 112q0 51 -23 86.5t-58 47.5t-151 12h-191z" />
<glyph unicode="&#x413;" horiz-adv-x="1024" d="M71 0l252 1466h858l-41 -245h-613l-208 -1221h-248z" />
<glyph unicode="&#x414;" horiz-adv-x="1212" d="M-170 -406l117 652h106q204 418 332 1220h842l-213 -1220h106l-114 -652h-201l72 406h-775l-71 -406h-201zM311 246h459l170 975h-356q-95 -541 -273 -975z" />
<glyph unicode="&#x415;" horiz-adv-x="1120" d="M69 0l251 1466h891l-42 -245h-643l-57 -333h622l-42 -245h-622l-69 -398h691l-41 -245h-939z" />
<glyph unicode="&#x416;" horiz-adv-x="1556" d="M-70 0l310 532q106 183 243 216q-91 50 -126 315q-16 120 -34.5 154t-84.5 34q-15 0 -62 -6l37 225q19 3 74 3q91 0 156 -49.5t105 -262.5t66 -268.5t95 -46.5l108 620h246l-109 -620q63 2 107 66t108.5 206.5t105.5 207.5t111.5 107t182.5 42q39 0 92 -9l-41 -221 q-39 5 -64 5q-57 0 -89 -28t-83 -151t-104 -208t-139 -115q107 -47 157 -263l113 -485h-254l-90 416q-28 129 -62 174t-87 45l-111 -635h-244l109 635q-44 -1 -83 -35t-118 -172l-244 -428h-297z" />
<glyph unicode="&#x417;" horiz-adv-x="1079" d="M18 338l238 90q38 -209 217 -209q108 0 177 62.5t69 164.5q0 85 -57.5 137t-149.5 52q-25 0 -55 -4l43 254q33 -8 86 -8q87 0 146 57.5t59 144.5q0 72 -46.5 116t-115.5 44q-162 0 -207 -174l-236 68q54 192 173 275t270 83q177 0 297.5 -110.5t120.5 -276.5 q0 -272 -256 -367q180 -105 180 -315q0 -183 -134.5 -314t-361.5 -131q-395 0 -457 361z" />
<glyph unicode="&#x418;" horiz-adv-x="1208" d="M29 0l258 1466h229l-158 -909l650 909h233l-256 -1466h-233l163 920l-655 -920h-231z" />
<glyph unicode="&#x419;" horiz-adv-x="1208" d="M29 0l258 1466h229l-158 -909l650 909h233l-256 -1466h-233l163 920l-655 -920h-231zM534 1864h114q19 -82 51 -113.5t79 -31.5q98 0 162 145h108q-35 -140 -121 -226q-64 -64 -156 -64q-95 0 -157.5 71t-79.5 219z" />
<glyph unicode="&#x41a;" horiz-adv-x="1032" d="M33 0l256 1466h246l-109 -622q83 2 123.5 52t130 236t136.5 240.5t108.5 74t148.5 19.5h64l-54 -223h-39q-54 0 -85.5 -33.5t-94.5 -185.5q-95 -235 -227 -276q49 -19 87.5 -69.5t78.5 -217.5l108 -461h-254l-100 455q-24 110 -59 145.5t-109 36.5l-110 -637h-246z" />
<glyph unicode="&#x41b;" horiz-adv-x="1153" d="M-86 0l45 252q56 -14 76 -14q46 0 78.5 41t60.5 200l172 987h828l-254 -1466h-248l213 1221h-334l-135 -777q-44 -247 -119 -355.5t-219 -108.5q-80 0 -164 20z" />
<glyph unicode="&#x41c;" horiz-adv-x="1399" d="M68 0l251 1466h353l37 -1027l410 1027h356l-251 -1466h-226l237 1216l-475 -1216h-235l-43 1225l-191 -1225h-223z" />
<glyph unicode="&#x41d;" horiz-adv-x="1212" d="M72 0l251 1466h248l-98 -566h466l97 566h247l-251 -1466h-247l112 655h-465l-113 -655h-247z" />
<glyph unicode="&#x41e;" horiz-adv-x="1307" d="M147 575q0 190 64 391q81 258 240 391.5t368 133.5q217 0 357.5 -165t140.5 -450q0 -258 -100.5 -476t-249.5 -322t-328 -104q-214 0 -341 150q-151 177 -151 451zM392 581q0 -162 79.5 -258.5t193.5 -96.5q92 0 182 72t156.5 236.5t66.5 334.5q0 178 -82 280 q-72 90 -189 90q-94 0 -186 -73t-156.5 -234.5t-64.5 -350.5z" />
<glyph unicode="&#x41f;" horiz-adv-x="1212" d="M71 0l252 1466h960l-252 -1466h-248l211 1221h-465l-210 -1221h-248z" />
<glyph unicode="&#x420;" horiz-adv-x="1120" d="M69 0l251 1466h489q136 0 209 -39t117.5 -122.5t44.5 -204.5q0 -146 -53.5 -268.5t-133 -181.5t-188.5 -80q-59 -11 -234 -11h-159l-96 -559h-247zM454 802h76q183 0 249.5 25t109.5 91.5t43 154.5q0 95 -62 131q-36 21 -166 21h-178z" />
<glyph unicode="&#x421;" horiz-adv-x="1212" d="M159 606q0 271 92 477.5t234.5 307t308.5 100.5q187 0 311.5 -123t146.5 -352l-237 -28q-21 133 -78 188t-148 55q-93 0 -179 -67t-146.5 -224.5t-60.5 -346.5q0 -177 70 -271.5t170 -94.5q95 0 176 74.5t121 226.5l249 -45q-75 -255 -221.5 -382t-339.5 -127 q-216 0 -342.5 158t-126.5 474z" />
<glyph unicode="&#x422;" horiz-adv-x="1026" d="M202 1221l42 245h947l-42 -245h-347l-210 -1221h-247l210 1221h-353z" />
<glyph unicode="&#x423;" horiz-adv-x="1137" d="M84 0l31 233q60 -14 96 -14q70 0 117 37.5t94 130.5l18 37l-266 1042h277l153 -747l418 747h268l-735 -1233q-95 -160 -160.5 -208t-156.5 -48q-87 0 -154 23z" />
<glyph unicode="&#x424;" horiz-adv-x="1311" d="M100 639q0 247 158.5 438t415.5 221l31 168h231l-31 -172q181 -6 280 -126.5t99 -317.5q0 -269 -154.5 -461t-422.5 -215l-33 -186h-230l33 186q-377 62 -377 465zM346 645q0 -201 174 -221l111 623q-127 -34 -206 -145t-79 -257zM754 428q119 14 201.5 137t82.5 258 q0 198 -176 226z" />
<glyph unicode="&#x425;" horiz-adv-x="1120" d="M-50 0l531 742l-299 724h259l116 -275q63 -148 91 -230q100 149 169 244l189 261h310l-549 -772l296 -694h-279l-90 221q-72 177 -94 251q-31 -58 -165 -244l-165 -228h-320z" />
<glyph unicode="&#x426;" horiz-adv-x="1225" d="M25 0l256 1466h245l-213 -1220h465l215 1220h244l-213 -1220h106l-114 -652h-201l72 406h-862z" />
<glyph unicode="&#x427;" horiz-adv-x="1190" d="M172 823q0 86 25 226l73 417h246l-70 -389q-18 -123 -18 -147q0 -170 182 -170q137 0 252 71l113 635h244l-258 -1466h-244l104 578q-193 -70 -305 -70q-162 0 -253 83t-91 232z" />
<glyph unicode="&#x428;" horiz-adv-x="1645" d="M31 0l256 1466h245l-213 -1220h324l213 1220h246l-213 -1220h328l215 1220h241l-256 -1466h-1386z" />
<glyph unicode="&#x429;" horiz-adv-x="1661" d="M31 0l256 1466h245l-213 -1220h324l213 1220h246l-213 -1220h328l215 1220h241l-213 -1220h107l-117 -652h-201l72 406h-1290z" />
<glyph unicode="&#x42a;" horiz-adv-x="1434" d="M135 1221l43 245h606l-96 -555h195q269 0 372 -101t103 -318q0 -229 -129 -360.5t-361 -131.5h-587l217 1221h-363zM571 240h246q118 0 171.5 21t88.5 78.5t35 131.5q0 92 -51.5 143.5t-218.5 51.5h-195z" />
<glyph unicode="&#x42b;" horiz-adv-x="1657" d="M35 0l258 1466h246l-97 -555h195q270 0 372.5 -101t102.5 -318q0 -229 -129 -360.5t-360 -131.5h-588zM326 240h245q118 0 172 21t88.5 78.5t34.5 131.5q0 92 -51 143.5t-219 51.5h-195zM1249 0l251 1466h247l-251 -1466h-247z" />
<glyph unicode="&#x42c;" horiz-adv-x="1190" d="M35 0l258 1466h246l-97 -555h195q270 0 372.5 -101t102.5 -318q0 -229 -129 -360.5t-360 -131.5h-588zM326 240h245q118 0 172 21t88.5 78.5t34.5 131.5q0 92 -51 143.5t-219 51.5h-195z" />
<glyph unicode="&#x42d;" horiz-adv-x="1208" d="M72 422l233 96q18 -174 87.5 -231.5t146.5 -57.5q110 0 203.5 97.5t144.5 283.5h-381l35 246h379v23q0 158 -74 256t-187 98q-96 0 -166 -62t-96 -172l-239 62q38 194 180.5 312t325.5 118q233 0 367 -168t134 -471q0 -381 -182 -628t-471 -247q-369 0 -440 445z" />
<glyph unicode="&#x42e;" horiz-adv-x="1749" d="M27 0l256 1466h243l-106 -608h194q49 299 214 466t389 167q223 0 358 -168t135 -461q0 -358 -161 -622.5t-470 -264.5q-229 0 -367.5 168t-138.5 424v39h-198l-107 -606h-241zM819 596q0 -165 78 -267t199 -102q159 0 263.5 171.5t104.5 453.5q0 182 -73.5 284.5 t-190.5 102.5q-153 0 -267 -187t-114 -456z" />
<glyph unicode="&#x42f;" horiz-adv-x="1225" d="M-80 0l336 477q94 135 174 168q-244 61 -244 356q0 201 123.5 333t323.5 132h622l-258 -1466h-243l108 612h-28q-95 0 -157 -31t-151 -157l-299 -424h-307zM432 1020q0 -174 205 -174h264l64 375h-211q-182 0 -252 -49t-70 -152z" />
<glyph unicode="&#x430;" d="M76 284q0 161 82 248q81 87 272 105q168 17 225 41q15 61 15 97q0 48 -32.5 77.5t-88.5 29.5q-122 0 -149 -121l-230 24q41 147 142 224t256 77q158 0 243 -78.5t85 -208.5q0 -46 -6.5 -98t-48.5 -284q-35 -191 -35 -267q0 -69 19 -150h-228q-14 58 -17 120 q-52 -70 -119.5 -107t-134.5 -37q-106 0 -178 84t-72 224zM297 309q0 -53 30.5 -86t77.5 -33q49 0 94 27.5t72 77t46 162.5l7 38q-22 -7 -57 -13q-165 -24 -217.5 -64.5t-52.5 -108.5z" />
<glyph unicode="&#x431;" horiz-adv-x="1040" d="M68 461q0 198 69 416t166 357.5t191 181t227 44.5t152.5 13t23.5 59h160q-5 -142 -37 -203.5t-93.5 -77.5t-202.5 -21q-126 -5 -175.5 -29t-92 -84t-77.5 -154q118 98 235 98q159 0 258 -126.5t99 -338.5q0 -258 -141 -438.5t-357 -180.5q-184 0 -294.5 131.5 t-110.5 352.5zM305 446q0 -116 52 -181.5t128 -65.5q99 0 173.5 124.5t74.5 290.5q0 108 -48 170t-132 62q-103 0 -175.5 -117.5t-72.5 -282.5z" />
<glyph unicode="&#x432;" horiz-adv-x="1014" d="M66 449q0 284 142.5 460t387.5 176q152 0 233.5 -74t81.5 -206q0 -199 -194 -270q166 -66 166 -234q0 -144 -111.5 -235t-300.5 -91q-196 0 -300.5 122t-104.5 352zM287 444q1 -138 51 -199t162 -61q155 0 155 125q0 57 -43 96t-104 39h-221zM299 618h178q91 0 128.5 8.5 t66 49.5t28.5 90q0 117 -131 117q-227 0 -270 -265z" />
<glyph unicode="&#x433;" horiz-adv-x="897" d="M12 297q0 110 50.5 174t125 96t208 71t173 65t39.5 90q0 90 -123 90q-118 0 -153 -121l-207 43q71 280 336 280q174 0 269 -79.5t95 -221.5q0 -114 -55.5 -180.5t-145 -103t-262.5 -83.5q-133 -37 -133 -124q0 -49 41 -82t107 -33q152 0 194 156l222 -43 q-70 -316 -428 -316q-163 0 -258 91t-95 231z" />
<glyph unicode="&#x434;" horiz-adv-x="1038" d="M57 434q0 273 146.5 462t351.5 189q141 0 242 -110l2 92q0 143 -54 199.5t-208 56.5h-111l43 209h74q273 0 369 -125t96 -418q0 -455 -134 -733.5t-415 -278.5q-184 0 -293 123t-109 334zM295 432q0 -111 45.5 -172t122.5 -61q120 0 204.5 155t84.5 328q0 188 -168 188 q-123 0 -206 -136.5t-83 -301.5z" />
<glyph unicode="&#x435;" d="M97 468q0 245 128 431.5t358 186.5q155 0 251.5 -117.5t96.5 -339.5q0 -105 -16 -187h-591v-27q0 -107 50 -171t120 -64q116 0 183 148l211 -43q-62 -155 -165 -232t-231 -77q-170 0 -282.5 132.5t-112.5 359.5zM348 617h368l1 28q0 121 -44.5 179t-115.5 58 q-72 0 -130.5 -67t-78.5 -198z" />
<glyph unicode="&#x436;" horiz-adv-x="1237" d="M-82 0l213 362q55 95 92.5 133t95.5 44q-71 79 -81 193t-23.5 142.5t-58.5 28.5h-43l26 158h80q51 0 89.5 -23.5t56.5 -61t37 -156.5t37.5 -159.5t76.5 -50.5l78 451h233l-79 -451q66 0 99.5 45t88 173.5t79 162t67 52t100.5 18.5h102l-29 -158h-30q-58 0 -84 -69 q-55 -147 -95 -206.5t-126 -88.5q93 -27 129 -183l81 -356h-221l-69 313q-20 90 -43.5 117t-77.5 27l-80 -457h-229l79 457q-34 0 -56 -16t-60 -85l-199 -356h-256z" />
<glyph unicode="&#x437;" horiz-adv-x="856" d="M-12 274l221 25q42 -145 166 -145q60 0 100.5 43.5t40.5 107.5q0 143 -170 137l21 176q100 0 152 26t52 122q0 57 -33 95t-81 38q-87 0 -150 -123l-194 41q93 268 362 268q147 0 230 -76t83 -206q0 -90 -51.5 -163.5t-138.5 -98.5q73 -24 114.5 -89.5t41.5 -148.5 q0 -143 -104.5 -235.5t-291.5 -92.5q-307 0 -370 299z" />
<glyph unicode="&#x438;" horiz-adv-x="1026" d="M118 252q0 54 28 218l101 592h236l-108 -629q-19 -113 -19 -141q0 -48 28.5 -80t69.5 -32q48 0 95 34q66 47 105 122.5t64 219.5l86 506h235l-181 -1062h-220l24 144q-145 -168 -313 -168q-106 0 -168.5 73.5t-62.5 202.5z" />
<glyph unicode="&#x439;" horiz-adv-x="1026" d="M118 252q0 54 28 218l101 592h236l-108 -629q-19 -113 -19 -141q0 -48 28.5 -80t69.5 -32q48 0 95 34q66 47 105 122.5t64 219.5l86 506h235l-181 -1062h-220l24 144q-145 -168 -313 -168q-106 0 -168.5 73.5t-62.5 202.5zM393 1488h114q19 -82 51 -113.5t79 -31.5 q98 0 162 145h108q-35 -140 -121 -226q-64 -64 -156 -64q-95 0 -157.5 71t-79.5 219z" />
<glyph unicode="&#x43a;" horiz-adv-x="852" d="M16 0l185 1061h233l-80 -451q50 0 83.5 17.5t98.5 159t117 208t146 66.5h108l-33 -195h-28q-33 0 -55.5 -20.5t-55.5 -95.5q-72 -169 -188 -211q86 -23 123 -183l82 -356h-220l-71 313q-20 86 -44 115.5t-89 26.5l-82 -455h-230z" />
<glyph unicode="&#x43b;" horiz-adv-x="1044" d="M-82 0l37 240q50 -13 84 -13q63 0 88 50.5t49 191.5l103 592h743l-186 -1061h-232l146 838h-295l-99 -559q-26 -159 -94.5 -231.5t-191.5 -72.5q-62 0 -152 25z" />
<glyph unicode="&#x43c;" horiz-adv-x="1243" d="M25 0l184 1061h287l90 -733l350 733h278l-184 -1061h-199l123 694l-329 -694h-197l-82 707l-125 -707h-196z" />
<glyph unicode="&#x43d;" horiz-adv-x="1014" d="M16 0l187 1061h231l-69 -391h325l70 391h231l-184 -1061h-234l78 446h-325l-76 -446h-234z" />
<glyph unicode="&#x43e;" horiz-adv-x="1026" d="M102 441q0 261 118 444q131 201 379 201q186 0 296.5 -126t110.5 -351q0 -264 -137.5 -448.5t-359.5 -184.5q-181 0 -294 125t-113 340zM338 448q0 -119 51.5 -185t127.5 -66q96 0 163 102q93 140 93 347q0 105 -49.5 165t-125.5 60q-64 0 -120 -44t-98 -153t-42 -226z " />
<glyph unicode="&#x43f;" horiz-adv-x="1026" d="M70 0l182 1062h223l-23 -138q87 91 159.5 126.5t149.5 35.5q105 0 168 -73t63 -200q0 -55 -26 -211l-103 -602h-236l104 602q23 135 23 162q0 57 -27.5 87.5t-71.5 30.5q-48 0 -98 -38q-72 -54 -107 -128.5t-70 -279.5l-75 -436h-235z" />
<glyph unicode="&#x440;" horiz-adv-x="1026" d="M-9 -405l251 1467h223l-19 -109q75 75 137 104t130 29q136 0 220 -114t84 -343q0 -292 -148 -490q-122 -163 -287 -163q-172 0 -261 170l-95 -551h-235zM384 453q0 -125 50 -193t116 -68q53 0 104 43.5t92.5 160.5t41.5 241q0 119 -47.5 182t-117.5 63q-55 0 -106.5 -43 t-92 -155t-40.5 -231z" />
<glyph unicode="&#x441;" d="M101 429q0 195 67.5 347.5t183 231t246.5 78.5q148 0 243 -94t107 -261l-224 -29q-16 173 -140 173q-57 0 -112 -47t-96.5 -168t-41.5 -264q0 -95 38.5 -145.5t92.5 -50.5q57 0 109.5 48.5t83.5 151.5l228 -45q-57 -190 -168.5 -284.5t-254.5 -94.5q-162 0 -262 118 t-100 335z" />
<glyph unicode="&#x442;" horiz-adv-x="1493" d="M60 0l182 1062h222l-23 -129q130 153 272 153q190 0 220 -187q47 82 132 134.5t172 52.5q102 0 162 -65.5t60 -182.5q0 -55 -23 -189l-111 -649h-236l111 649q21 122 21 138q0 46 -23 70.5t-63 24.5q-85 0 -153 -106q-54 -83 -90 -293l-82 -483h-236l110 642 q19 111 19 143q0 45 -24.5 71t-62.5 26q-51 0 -105.5 -48.5t-86.5 -141.5q-19 -55 -45 -204l-84 -488h-235z" />
<glyph unicode="&#x443;" d="M11 -399l21 214q42 -15 82 -15q108 0 179 200l-152 1062h234l59 -529q22 -203 25 -286q46 164 126 344l209 471h249l-538 -1166q-76 -164 -117 -219.5t-92.5 -81.5t-116.5 -26q-74 0 -168 32z" />
<glyph unicode="&#x444;" horiz-adv-x="1487" d="M68 420q0 274 124.5 469.5t290.5 195.5q134 0 226 -141l94 547h231l-94 -510q84 104 203 104q126 0 207.5 -122.5t81.5 -321.5q0 -269 -129 -467.5t-297 -198.5q-120 0 -220 146v-31l-92 -506h-229l88 484q-105 -93 -201 -93q-123 0 -203.5 121t-80.5 324zM305 446 q0 -114 37.5 -185t95.5 -71q78 0 142.5 125t64.5 299q0 118 -37.5 187t-91.5 69q-72 0 -141.5 -134t-69.5 -290zM852 440q0 -106 38 -178t95 -72q78 0 143.5 125t65.5 299q0 118 -38.5 187t-92.5 69q-73 0 -142 -134t-69 -296z" />
<glyph unicode="&#x445;" d="M-37 0l403 544l-222 518h250l127 -303l221 303h286l-404 -551l220 -511h-250l-126 298l-217 -298h-288z" />
<glyph unicode="&#x446;" horiz-adv-x="1085" d="M61 248q0 56 17 149l117 664h231l-113 -651q-14 -77 -14 -113q0 -113 98 -113q83 0 158 91t102 249l93 537h231l-125 -719q-12 -74 -12 -88q0 -30 16 -45.5t86 -15.5l51 2l-90 -525h-190l65 330q-153 0 -178 139q-162 -164 -309 -164q-109 0 -171.5 74t-62.5 199z" />
<glyph unicode="&#x447;" horiz-adv-x="979" d="M125 668q0 58 20 182l35 211h236l-37 -211q-17 -98 -17 -139q0 -136 150 -136q67 0 135 35l78 451h231l-186 -1061h-231l73 424q-115 -43 -225 -43q-119 0 -190.5 78.5t-71.5 208.5z" />
<glyph unicode="&#x448;" horiz-adv-x="1487" d="M72 231q0 53 14 136l121 694h233l-121 -694q-10 -55 -10 -95q0 -88 82 -88q80 0 142.5 84.5t91.5 247.5l96 545h233l-120 -688q-13 -80 -13 -90q0 -42 25 -68.5t63 -26.5q74 0 137 78t87 215l100 580h233l-184 -1061h-217l25 133q-141 -160 -291 -160q-75 0 -131.5 49.5 t-73.5 135.5q-138 -183 -301 -183q-104 0 -162.5 67t-58.5 189z" />
<glyph unicode="&#x449;" horiz-adv-x="1571" d="M74 231q0 53 14 136l121 694h233l-120 -694q-11 -55 -11 -95q0 -88 82 -88q80 0 142.5 84.5t91.5 247.5l96 545h233l-120 -688q-13 -80 -13 -90q0 -42 25 -68.5t63 -26.5q74 0 137 78t87 215l100 580h233l-135 -805q0 -41 23 -50t84 -9l47 2l-92 -525h-191l66 326 q-56 0 -97.5 17.5t-80.5 115.5q-140 -160 -291 -160q-75 0 -131.5 49.5t-73.5 135.5q-138 -183 -301 -183q-104 0 -162.5 67t-58.5 189z" />
<glyph unicode="&#x44a;" horiz-adv-x="1188" d="M74 874l32 187h515l-78 -438h288q130 0 199.5 -68.5t69.5 -196.5q0 -164 -93.5 -261t-240.5 -97h-565l151 874h-278zM465 180h186q211 0 211 146q0 62 -42 92.5t-165 30.5h-143z" />
<glyph unicode="&#x44b;" horiz-adv-x="1464" d="M14 0l187 1061h233l-78 -438h289q129 0 198.5 -68.5t69.5 -196.5q0 -163 -93 -260.5t-240 -97.5h-566zM279 180h186q211 0 211 146q0 62 -42 92.5t-165 30.5h-143zM1065 0l182 1062h235l-182 -1062h-235z" />
<glyph unicode="&#x44c;" horiz-adv-x="997" d="M14 0l187 1061h233l-78 -438h289q129 0 198.5 -68.5t69.5 -196.5q0 -163 -93 -260.5t-240 -97.5h-566zM279 180h186q211 0 211 146q0 62 -42 92.5t-165 30.5h-143z" />
<glyph unicode="&#x44d;" horiz-adv-x="928" d="M8 334l223 24q13 -168 140 -168q142 0 223 248h-238l17 174h252v39q0 213 -136 213q-94 0 -163 -129l-232 47q120 303 400 303q164 0 261 -123t97 -335q0 -284 -142 -468t-356 -184q-140 0 -232.5 93t-113.5 266z" />
<glyph unicode="&#x44e;" horiz-adv-x="1452" d="M25 0l184 1061h231l-71 -414h178q46 212 165 325t287 113q177 0 280 -116t103 -324q0 -282 -142 -476t-357 -194q-159 0 -258 117.5t-107 331.5h-188l-74 -424h-231zM754 410q0 -96 39.5 -154.5t105.5 -58.5q124 0 185 164t61 296q0 213 -150 213q-103 0 -172 -135 t-69 -325z" />
<glyph unicode="&#x44f;" horiz-adv-x="989" d="M-74 0l197 311q54 86 125 133q-65 15 -111.5 85.5t-46.5 168.5q0 143 80.5 253t304.5 110h490l-197 -1061h-233l75 416h-84q-69 0 -170 -170l-145 -246h-285zM328 723q0 -69 44.5 -101t153.5 -32h115l51 297h-166q-198 0 -198 -164z" />
<glyph unicode="&#x451;" d="M97 468q0 245 128 431.5t358 186.5q155 0 251.5 -117.5t96.5 -339.5q0 -105 -16 -187h-591v-27q0 -107 50 -171t120 -64q116 0 183 148l211 -43q-62 -155 -165 -232t-231 -77q-170 0 -282.5 132.5t-112.5 359.5zM318 1223l42 245h201l-42 -245h-201zM348 617h368l1 28 q0 121 -44.5 179t-115.5 58q-72 0 -130.5 -67t-78.5 -198zM663 1223l42 245h202l-42 -245h-202z" />
<glyph unicode="&#x452;" horiz-adv-x="1026" d="M23 0l204 1204h-106l26 146h107l20 116h236l-21 -116h314l-27 -146h-311l-45 -260q144 141 295 141q106 0 167.5 -73.5t61.5 -200.5q0 -58 -22 -190l-78 -457q-27 -158 -59 -291t-43.5 -162.5t-45 -64t-83.5 -55.5t-107 -21q-98 0 -176 31l35 237q54 -16 96 -16 q52 0 67 30t43.5 142t40.5 188l76 451q19 104 19 133q0 53 -28.5 85t-74.5 32q-65 0 -128 -64t-89 -139.5t-57 -259.5l-72 -420h-235z" />
<glyph unicode="&#x453;" horiz-adv-x="788" d="M16 0l185 1061h684l-41 -223h-449l-147 -838h-232zM387 1196l170 301h252l-266 -301h-156z" />
<glyph unicode="&#x454;" horiz-adv-x="946" d="M63 434q0 282 142.5 466.5t353.5 184.5q149 0 242.5 -92t109.5 -266l-221 -25q-16 168 -139 168q-75 0 -136.5 -68.5t-88.5 -191.5h241l-32 -174h-234v-30q0 -213 133 -213q120 0 191 206l227 -49q-75 -202 -175 -287.5t-247 -85.5q-169 0 -268 122t-99 335z" />
<glyph unicode="&#x455;" d="M37 297l228 44q30 -90 76 -125.5t122 -35.5q73 0 118 35t45 82q0 32 -19 54q-20 21 -96 51q-211 85 -262 134q-81 79 -81 206q0 150 106 247t290 97q312 0 362 -277l-217 -46q-38 126 -182 126q-68 0 -103 -28t-35 -71q0 -36 27 -61q20 -19 138 -61q169 -60 227 -117 q85 -83 85 -202q0 -161 -109 -267t-289 -106q-354 0 -431 321z" />
<glyph unicode="&#x456;" horiz-adv-x="467" d="M68 0l182 1062h235l-182 -1062h-235zM275 1206l44 260h236l-45 -260h-235z" />
<glyph unicode="&#x457;" horiz-adv-x="467" d="M68 0l182 1062h235l-182 -1062h-235zM116 1223l42 245h201l-42 -245h-201zM461 1223l42 245h202l-42 -245h-202z" />
<glyph unicode="&#x458;" horiz-adv-x="467" d="M-183 -399l37 237q56 -17 95 -17q51 0 79 49t73 312l150 880h237l-155 -899q-66 -384 -112 -466q-71 -128 -231 -128q-93 0 -173 32zM276 1206l45 260h236l-45 -260h-236z" />
<glyph unicode="&#x459;" horiz-adv-x="1628" d="M-82 0l37 240q50 -13 84 -13q63 0 88 50.5t49 191.5l103 592h784l-78 -438h287q129 0 198.5 -68.5t69.5 -196.5q0 -163 -92.5 -260.5t-239.5 -97.5h-565l148 838h-318l-98 -559q-53 -304 -275 -304q-79 0 -182 25zM905 180h187q211 0 211 146q0 62 -41.5 92.5 t-163.5 30.5h-146z" />
<glyph unicode="&#x45a;" horiz-adv-x="1522" d="M20 0l187 1061h231l-71 -438h278l74 438h233l-78 -438h224q188 0 261 -63.5t73 -201.5q0 -167 -93.5 -262.5t-259.5 -95.5h-547l82 449h-280l-80 -449h-234zM797 180h186q211 0 211 146q0 61 -40.5 92t-164.5 31h-145z" />
<glyph unicode="&#x45b;" horiz-adv-x="1026" d="M23 0l206 1204h-108l24 146h109l20 116h236l-21 -116h353l-27 -146h-352l-43 -260q144 141 295 141q106 0 167.5 -73.5t61.5 -200.5q0 -59 -22 -190l-107 -621h-235l108 633q19 99 19 133q0 53 -28.5 85t-74.5 32q-66 0 -129.5 -66.5t-89.5 -146.5t-55 -250l-72 -420 h-235z" />
<glyph unicode="&#x45c;" horiz-adv-x="852" d="M16 0l185 1061h233l-80 -451q50 0 83.5 17.5t98.5 159t117 208t146 66.5h108l-33 -195h-28q-33 0 -55.5 -20.5t-55.5 -95.5q-72 -169 -188 -211q86 -23 123 -183l82 -356h-220l-71 313q-20 86 -44 115.5t-89 26.5l-82 -455h-230zM446 1196l171 300h252l-267 -300h-156z " />
<glyph unicode="&#x45e;" d="M11 -399l21 214q42 -15 82 -15q108 0 179 200l-152 1062h234l59 -529q22 -203 25 -286q46 164 126 344l209 471h249l-538 -1166q-76 -164 -117 -219.5t-92.5 -81.5t-116.5 -26q-74 0 -168 32zM345 1488h114q19 -82 51 -113.5t79 -31.5q98 0 162 145h108 q-35 -140 -121 -226q-64 -64 -156 -64q-95 0 -157.5 71t-79.5 219z" />
<glyph unicode="&#x45f;" horiz-adv-x="1032" d="M74 264q0 36 28 205l101 592h235l-106 -629q-21 -128 -21 -141q0 -47 28 -79t71 -32q62 0 124 56t90.5 127t49.5 194l86 504h235l-182 -1061h-219l24 143q-93 -112 -210 -153l-68 -398h-188l69 398q-147 55 -147 274z" />
<glyph unicode="&#x490;" horiz-adv-x="965" d="M35 0l256 1466h592l69 406h246l-113 -651h-591l-213 -1221h-246z" />
<glyph unicode="&#x491;" horiz-adv-x="784" d="M16 0l185 1061h450l64 366h231l-102 -589h-449l-147 -838h-232z" />
<glyph unicode="&#x2000;" horiz-adv-x="948" />
<glyph unicode="&#x2001;" horiz-adv-x="1896" />
<glyph unicode="&#x2002;" horiz-adv-x="948" />
<glyph unicode="&#x2003;" horiz-adv-x="1896" />
<glyph unicode="&#x2004;" horiz-adv-x="632" />
<glyph unicode="&#x2005;" horiz-adv-x="474" />
<glyph unicode="&#x2006;" horiz-adv-x="316" />
<glyph unicode="&#x2007;" horiz-adv-x="316" />
<glyph unicode="&#x2008;" horiz-adv-x="237" />
<glyph unicode="&#x2009;" horiz-adv-x="379" />
<glyph unicode="&#x200a;" horiz-adv-x="105" />
<glyph unicode="&#x2010;" horiz-adv-x="559" d="M65 390l48 277h456l-47 -277h-457z" />
<glyph unicode="&#x2011;" horiz-adv-x="559" d="M65 390l48 277h456l-47 -277h-457z" />
<glyph unicode="&#x2012;" horiz-adv-x="559" d="M65 390l48 277h456l-47 -277h-457z" />
<glyph unicode="&#x2013;" d="M-3 426v210h934v-210h-934z" />
<glyph unicode="&#x2014;" horiz-adv-x="1679" d="M0 426v210h1679v-210h-1679z" />
<glyph unicode="&#x2018;" horiz-adv-x="467" d="M180 870l39 229q35 200 109 282t191 85l-22 -133q-58 -16 -90 -56t-50 -129h108l-48 -278h-237z" />
<glyph unicode="&#x2019;" horiz-adv-x="467" d="M208 870l23 133q58 16 90.5 56.5t49.5 128.5h-108l47 278h237l-39 -229q-34 -201 -109 -282.5t-191 -84.5z" />
<glyph unicode="&#x201a;" horiz-adv-x="467" d="M17 -318l23 133q58 16 91 57t49 128h-109l48 277h237l-39 -229q-34 -201 -109 -282t-191 -84z" />
<glyph unicode="&#x201c;" horiz-adv-x="840" d="M207 870l39 229q35 200 109 282t191 85l-22 -133q-58 -16 -90 -56t-50 -129h108l-48 -278h-237zM603 870l39 229q34 200 108.5 282t191.5 85l-22 -133q-58 -16 -90.5 -56t-50.5 -129h109l-48 -278h-237z" />
<glyph unicode="&#x201d;" horiz-adv-x="840" d="M215 870l23 133q58 16 90.5 56.5t49.5 128.5h-108l47 278h237l-39 -229q-34 -201 -109 -282.5t-191 -84.5zM611 870l23 133q58 16 90.5 56.5t48.5 128.5h-108l48 278h237l-39 -229q-34 -201 -109 -282.5t-191 -84.5z" />
<glyph unicode="&#x201e;" horiz-adv-x="840" d="M6 -318l23 133q58 16 91 57t49 128h-109l48 277h237l-39 -229q-34 -201 -109 -282t-191 -84zM402 -318l23 133q58 16 90.5 57t48.5 128h-108l48 277h237l-39 -229q-34 -201 -109 -282t-191 -84z" />
<glyph unicode="&#x2026;" horiz-adv-x="1679" d="M156 0l48 277h232l-48 -277h-232zM700 0l48 277h232l-48 -277h-232zM1244 0l47 277h233l-48 -277h-232z" />
<glyph unicode="&#x202f;" horiz-adv-x="379" />
<glyph unicode="&#x2039;" horiz-adv-x="559" d="M99 552l338 425h197l-296 -444l109 -462h-165z" />
<glyph unicode="&#x203a;" horiz-adv-x="559" d="M16 71l290 447l-104 459h169l164 -481l-319 -425h-200z" />
<glyph unicode="&#x205f;" horiz-adv-x="474" />
<glyph unicode="&#x20ac;" d="M45 514l27 156h92q3 78 10 131h-129l27 153h131q69 251 229.5 394t364.5 143q156 0 276 -92l-90 -273q-37 55 -80 80t-115 25q-214 0 -323 -277h407l-24 -153h-422q-11 -61 -18 -131h419l-22 -156h-402q14 -136 81 -211.5t167 -75.5q140 0 248 101l-55 -305 q-108 -48 -219 -48q-191 0 -316 130t-149 409h-115z" />
<glyph unicode="&#x2122;" horiz-adv-x="1679" d="M177 1324v142h545v-142h-201v-677h-136v677h-208zM803 647v819h213l122 -564l123 564h212v-819h-129v653l-145 -653h-124l-143 653v-653h-129z" />
<glyph unicode="&#x25fc;" horiz-adv-x="1060" d="M0 0v1060h1060v-1060h-1060z" />
</font>
</defs>
</svg>
